<svg version="1.1" xmlns="http://www.w3.org/2000/svg" viewBox="-235.2 -3089.6499999999996 8179.4 3420.85"><desc>Created with Snap</desc><defs></defs><g><rect x="-235.2" y="-3089.6499999999996" width="8179.4" height="3420.85" fill="#a0eade" style=""></rect><g transform="matrix(61.7963,0,0,61.7963,2927.5555,-2844.2926)"><path d="M28.832,15.546C28.937,15.386,29,15.198,29,15c0-0.368-0.202-0.706-0.526-0.88l-1.986-1.07l-11.019,5.834  C15.321,18.961,15.161,19,15,19s-0.321-0.039-0.468-0.116L3.513,13.05l-1.986,1.07C1.202,14.294,1,14.632,1,15  c0,0.198,0.063,0.386,0.168,0.546L15,22.869L28.832,15.546z" fill="#292929" style=""></path><path d="M28.474,20.12l-1.986-1.07l-11.02,5.834C15.321,24.962,15.161,25,15,25s-0.321-0.039-0.468-0.116L3.513,19.05l-1.986,1.07  C1.202,20.294,1,20.632,1,21s0.202,0.706,0.526,0.88l13,7C14.674,28.96,14.837,29,15,29s0.326-0.04,0.474-0.12l13-7  C28.798,21.706,29,21.368,29,21S28.798,20.294,28.474,20.12z" fill="#292929" style=""></path><path d="M15,16.869l13.832-7.323C28.937,9.385,29,9.198,29,9c0-0.368-0.202-0.706-0.526-0.88l-13-7  c-0.295-0.159-0.652-0.159-0.947,0l-13,7C1.202,8.294,1,8.632,1,9c0,0.198,0.063,0.385,0.168,0.546L15,16.869z" fill="#292929" style=""></path><desc>Created with Snap</desc><defs></defs></g><g><g transform="matrix(1,0,0,-1,0,0)"><path d="M565 53Q559 42 550 30Q542 18 528 18Q527 9 523 9Q519 9 520 5Q509 7 496 7Q484 7 474 1Q456 10 435 9Q415 8 395 10Q389 10 383 11Q378 13 372 14Q368 15 365 11Q362 8 358 8Q354 10 350 9Q347 8 343 8Q339 8 336 9Q333 10 329 10Q323 10 317 7Q312 4 305 4Q294 4 284 6Q274 8 263 8Q258 8 252 5Q247 3 242 3Q239 3 236 4Q234 5 231 5Q224 5 218 3Q212 1 205 1Q200 1 194 1Q189 2 183 2Q171 2 167 -8Q164 -6 161 -5Q159 -3 155 -3Q145 -3 138 -10Q131 -16 123 -16Q115 -16 109 -14Q103 -11 96 -10Q97 -2 86 9Q75 21 72 29Q79 39 81 52Q83 66 76 77Q83 81 86 94Q89 108 89 115Q89 119 85 118Q81 118 81 122Q81 125 83 131Q86 138 88 140Q84 146 85 149Q86 152 91 157Q87 161 87 166Q87 172 87 177Q87 182 85 186Q83 191 76 194Q76 196 78 199Q81 202 81 207Q81 212 76 222Q71 232 76 235Q76 239 74 241Q73 244 79 248Q75 262 77 274Q80 286 72 300Q75 298 76 299Q77 301 77 303Q77 306 77 307Q77 309 79 309Q82 323 81 339Q81 355 80 371Q80 387 80 402Q81 417 84 430Q92 449 92 460Q93 472 93 483Q93 488 94 492Q95 497 100 499Q98 518 96 536Q95 555 103 573Q99 581 98 584Q98 588 99 590Q100 592 101 594Q103 597 103 603Q103 612 101 620Q100 629 100 637Q100 642 101 653Q102 665 103 678Q105 691 106 702Q108 713 110 716Q112 721 118 723Q124 725 124 731Q126 731 132 731Q139 732 141 733Q148 736 152 735Q156 735 155 740Q161 735 164 734Q167 734 165 729Q173 727 178 722Q183 718 191 714Q189 704 193 699Q198 695 198 687Q198 683 195 681Q192 680 191 677Q195 665 193 650Q192 636 198 625Q188 607 188 588Q188 583 189 579Q191 576 191 571Q191 561 188 552Q186 543 186 534Q186 528 187 522Q188 516 188 510Q188 498 185 485Q182 472 186 460Q181 457 180 452Q180 447 177 443Q182 431 178 420Q174 409 174 397Q174 394 175 391Q177 388 177 384Q175 376 176 376Q177 376 177 374Q177 368 173 360Q169 353 169 345Q169 343 171 340Q174 337 174 335Q174 326 172 317Q171 309 179 302Q176 294 176 288Q177 282 177 274Q177 268 174 262Q172 256 172 250Q172 240 175 231Q179 222 179 212Q179 206 181 201Q183 197 185 192Q188 187 188 181Q189 176 186 168Q187 164 189 161Q191 158 191 154Q191 149 189 144Q188 140 186 135Q189 129 189 123Q189 117 188 111Q188 105 188 99Q189 93 193 88Q201 90 209 88Q217 87 225 87Q232 87 237 89Q242 92 248 94Q256 92 264 91Q273 90 281 88Q284 91 288 90Q292 89 296 88Q301 88 305 88Q309 89 312 94Q321 93 328 90Q336 88 346 90Q355 92 362 90Q369 89 377 89Q385 89 393 91Q402 94 410 94Q415 94 417 92Q420 90 424 88Q435 89 451 91Q468 94 477 99Q482 101 483 105Q485 110 491 112Q498 107 500 104Q503 101 512 103Q514 100 516 97Q518 95 520 92Q525 92 530 90Q536 89 541 88Q550 81 555 71Q560 62 565 53ZM1058 487Q1052 482 1045 472Q1039 462 1033 460Q1031 459 1028 459Q1025 460 1022 460Q1017 460 1015 458Q1013 456 1009 455Q1002 459 995 460Q988 461 981 465Q975 465 972 462Q969 459 964 459Q959 459 954 461Q950 463 946 458Q927 464 907 466Q888 469 869 474Q861 470 853 470Q846 471 838 469Q835 468 832 466Q829 465 826 465Q822 465 819 466Q816 467 812 467Q806 467 800 464Q794 462 788 462Q783 462 780 464Q777 467 772 462Q769 467 765 464Q762 462 759 460Q743 460 737 461Q732 463 725 462Q725 455 725 442Q725 429 725 415Q726 402 726 390Q726 379 725 375Q728 368 735 368Q743 368 748 368Q762 362 776 361Q791 361 805 361Q810 361 813 362Q817 363 822 363Q826 363 834 361Q843 360 851 359Q860 359 866 361Q873 363 873 371Q884 373 888 367Q893 361 898 361Q903 361 905 365Q907 369 911 371Q915 371 916 367Q917 364 924 364Q930 364 937 368Q945 373 953 363Q960 361 963 363Q966 365 972 366Q979 354 988 343Q997 333 1002 320Q999 320 995 317Q991 314 988 309Q985 305 983 301Q981 297 982 294Q976 289 969 284Q963 280 955 280Q947 280 945 283Q944 286 939 286Q934 286 930 284Q927 283 923 283Q918 283 912 284Q907 286 901 286Q894 286 887 283Q881 281 874 281Q869 281 865 283Q862 285 858 286Q851 287 845 287Q839 288 832 288Q827 288 823 285Q820 283 815 283Q810 283 804 284Q799 286 794 286Q790 286 787 285Q784 284 781 284Q763 282 752 280Q741 279 730 276Q731 265 731 254Q732 243 737 233Q737 230 734 229Q732 228 732 223Q740 213 741 201Q743 190 742 178Q741 166 740 154Q739 142 744 130Q741 122 739 115Q738 109 739 101Q746 91 757 91Q762 91 766 91Q770 92 775 92Q779 92 782 91Q785 90 789 90Q801 90 813 91Q825 93 837 93Q841 93 844 92Q848 92 852 92Q859 92 865 93Q872 95 879 95Q884 95 888 93Q892 92 897 92Q906 92 914 95Q923 98 932 98Q934 98 937 97Q940 97 942 97Q947 97 949 101Q951 106 953 107Q958 108 963 109Q968 110 973 111Q977 112 979 108Q982 105 983 102Q992 101 997 96Q1003 91 1011 90Q1013 85 1016 81Q1019 78 1024 78Q1022 70 1026 61Q1020 59 1015 54Q1011 49 1006 47Q1007 41 1008 35Q1009 30 1008 23Q1006 21 1002 21Q999 22 996 22Q989 22 987 17Q986 13 981 13Q978 15 973 15Q968 15 963 15Q958 15 953 15Q949 15 946 17Q940 17 936 14Q932 12 928 8Q918 12 909 9Q901 6 893 1Q889 5 885 5Q882 5 877 4Q877 7 874 9Q872 12 871 15Q854 12 837 13Q820 15 803 10Q794 15 781 15Q769 15 760 8Q752 12 743 8Q734 5 725 5Q712 8 709 5Q707 3 704 3Q699 3 694 3Q690 3 685 5Q680 12 676 12Q673 12 669 14Q668 22 660 29Q652 36 647 41Q650 43 653 44Q657 46 657 50Q650 60 649 64Q649 68 649 72Q650 77 649 81Q649 86 645 89Q655 92 655 96Q655 110 651 122Q647 134 647 148Q655 156 654 159Q654 163 654 173Q654 184 655 193Q657 203 648 211Q650 221 648 230Q647 240 647 250Q647 262 649 273Q652 285 652 297Q652 304 649 307Q647 310 647 313Q650 326 648 329Q646 333 645 338Q643 353 644 369Q646 385 646 401Q646 412 642 426Q639 440 641 446Q639 449 638 453Q637 457 633 459Q639 467 632 473Q626 480 626 488Q626 497 629 503Q633 509 629 519Q638 523 649 526Q654 531 655 534Q656 538 666 538Q683 538 699 535Q715 533 732 530Q736 531 739 531Q742 532 745 534Q753 530 760 530Q767 531 773 533Q780 535 786 537Q793 540 800 540Q808 540 815 538Q822 537 830 537Q856 537 882 540Q909 544 935 542Q944 537 942 533Q946 535 949 536Q953 537 958 537Q970 537 985 536Q1001 536 1012 533Q1018 527 1022 526Q1027 524 1031 522Q1035 521 1040 519Q1044 517 1047 515Q1051 514 1055 512Q1062 502 1057 497Q1053 493 1058 487ZM1750 71Q1749 66 1741 63Q1733 61 1728 56Q1728 50 1725 47Q1722 45 1723 37Q1718 35 1713 28Q1708 21 1703 21Q1696 21 1691 24Q1687 28 1678 26Q1670 41 1656 47Q1649 60 1642 72Q1635 84 1629 97Q1614 110 1605 114Q1596 119 1588 117Q1581 116 1572 110Q1564 104 1549 95Q1539 95 1521 95Q1504 95 1496 99Q1493 100 1490 101Q1488 103 1485 103Q1481 103 1477 101Q1474 100 1470 100Q1466 100 1463 101Q1460 102 1456 103Q1452 103 1449 102Q1447 102 1444 103Q1438 100 1435 97Q1433 95 1429 95Q1415 100 1399 102Q1384 104 1370 112Q1362 114 1361 109Q1360 105 1355 105Q1344 106 1335 104Q1326 103 1315 103Q1310 103 1304 104Q1299 105 1294 105Q1288 105 1283 102Q1278 100 1273 100Q1269 100 1266 101Q1263 103 1258 103Q1253 103 1249 100Q1246 98 1242 98Q1237 98 1233 98Q1229 99 1225 99Q1216 99 1212 95Q1208 92 1206 86Q1205 81 1204 75Q1203 70 1198 66Q1200 51 1197 42Q1194 33 1185 21Q1172 20 1160 17Q1148 15 1135 15Q1127 15 1124 20Q1121 25 1116 30Q1109 36 1105 42Q1102 48 1097 56Q1098 60 1101 62Q1105 65 1108 67Q1106 73 1107 77Q1109 81 1112 85Q1115 89 1117 93Q1120 98 1120 103Q1120 109 1120 111Q1121 113 1122 114Q1123 115 1124 116Q1125 117 1127 121Q1129 125 1128 128Q1127 132 1129 136Q1133 145 1138 152Q1144 160 1149 168Q1151 173 1152 177Q1154 181 1156 185Q1159 193 1167 200L1167 213Q1170 217 1172 220Q1174 223 1179 225Q1178 237 1185 245Q1192 254 1194 265Q1208 273 1217 287Q1227 302 1224 319Q1232 322 1236 330Q1240 338 1248 341Q1248 349 1250 355Q1253 361 1253 369Q1262 374 1265 382Q1269 391 1273 399Q1274 401 1277 406Q1280 412 1283 418Q1286 424 1288 428Q1291 433 1291 435Q1309 465 1312 491Q1318 497 1320 499Q1323 502 1324 504Q1325 507 1325 510Q1325 514 1327 521Q1330 520 1332 523Q1335 527 1338 532Q1342 537 1347 541Q1353 546 1362 546Q1372 546 1381 544Q1390 542 1400 541Q1405 535 1410 530Q1416 525 1421 518L1421 506Q1429 496 1436 485Q1444 475 1456 470Q1455 459 1460 457Q1466 456 1473 451Q1472 442 1474 437Q1477 433 1480 427Q1484 422 1487 417Q1490 413 1491 411Q1496 402 1503 402Q1502 397 1506 395Q1510 394 1508 387Q1517 378 1530 373Q1530 366 1535 360Q1540 355 1545 352Q1546 347 1549 345Q1552 343 1555 341Q1560 338 1562 333Q1565 328 1570 326Q1571 317 1580 305Q1589 294 1599 282Q1609 271 1617 261Q1625 252 1624 247Q1632 242 1639 236Q1647 231 1657 227Q1657 219 1656 215Q1656 212 1657 209Q1658 207 1661 205Q1664 203 1671 198Q1670 193 1675 186Q1677 182 1678 177Q1679 173 1682 168Q1687 160 1695 155Q1704 151 1711 145Q1716 134 1719 123Q1722 112 1726 101Q1733 94 1741 91Q1742 86 1743 80Q1745 74 1750 71ZM1518 259Q1512 260 1509 263Q1506 267 1501 268Q1502 281 1496 282Q1490 283 1483 290Q1483 295 1479 296Q1475 298 1473 302Q1469 313 1468 314Q1467 316 1462 319Q1458 321 1458 324Q1458 327 1450 331Q1446 333 1442 334Q1438 335 1436 339Q1430 350 1421 362Q1413 375 1411 389Q1401 395 1396 403Q1392 411 1378 413Q1370 403 1367 391Q1364 380 1354 372L1354 359Q1349 353 1343 346Q1338 339 1339 331Q1331 329 1331 323Q1331 317 1327 312Q1325 309 1322 308Q1320 307 1320 302Q1315 292 1313 286Q1311 280 1308 275Q1297 270 1299 266Q1301 262 1298 255Q1294 248 1288 245Q1283 243 1285 232Q1274 222 1266 209Q1259 197 1261 182Q1271 183 1281 182Q1291 181 1301 181Q1312 181 1321 185Q1331 189 1342 189Q1355 189 1368 182Q1381 176 1393 182Q1398 180 1401 178Q1404 176 1409 174Q1442 168 1476 179Q1486 175 1491 174Q1494 176 1502 177Q1510 178 1518 179Q1527 180 1533 182Q1540 184 1539 187Q1546 191 1550 191Q1555 191 1555 202Q1555 208 1550 215Q1545 222 1538 229Q1531 237 1525 244Q1519 252 1518 259ZM2363 51Q2359 37 2362 21Q2357 13 2348 7Q2340 1 2332 -4Q2322 -3 2312 0Q2303 4 2293 6Q2290 13 2284 17Q2279 21 2276 27Q2273 32 2272 41Q2272 50 2271 59Q2270 68 2267 75Q2265 82 2259 84Q2260 94 2249 108Q2238 122 2233 132Q2225 137 2219 144Q2213 152 2208 160Q2198 158 2195 163Q2193 168 2186 166Q2186 169 2184 171Q2183 174 2182 176Q2173 184 2163 190Q2154 196 2146 204Q2141 204 2136 202Q2132 201 2129 207Q2124 207 2120 204Q2117 202 2114 202Q2111 202 2108 203Q2106 204 2103 204Q2092 204 2080 203Q2069 203 2058 199Q2056 201 2053 204Q2050 207 2048 207Q2046 207 2035 201Q2025 196 2017 195Q2003 193 1984 192Q1965 191 1955 178Q1950 180 1944 179Q1938 179 1937 172Q1931 173 1928 174Q1926 176 1920 174Q1915 164 1920 156Q1925 148 1927 139Q1928 131 1928 115Q1928 99 1936 94Q1933 87 1932 80Q1931 73 1931 65Q1931 62 1932 59Q1934 57 1934 53Q1934 48 1931 44Q1929 41 1930 36Q1923 34 1922 27Q1921 21 1921 16Q1913 16 1907 13Q1902 11 1896 8Q1891 5 1885 4Q1879 3 1871 6Q1862 19 1847 30Q1848 34 1846 38Q1845 43 1840 43Q1841 54 1838 59Q1835 64 1830 73Q1830 79 1833 84Q1836 90 1838 95Q1836 105 1835 116Q1834 127 1828 135Q1828 139 1829 141Q1830 144 1830 147Q1830 154 1827 162Q1824 170 1822 178Q1820 186 1819 193Q1819 200 1824 204Q1816 212 1815 218Q1815 225 1813 235Q1811 240 1809 243Q1807 247 1805 252Q1803 262 1804 272Q1806 283 1801 293Q1800 295 1799 297Q1798 300 1798 303Q1798 308 1799 312Q1800 316 1800 321Q1800 342 1799 363Q1798 384 1798 405Q1798 409 1798 412Q1799 415 1799 418Q1799 423 1796 428Q1800 439 1796 449Q1792 460 1786 470Q1788 475 1787 481Q1787 487 1787 492Q1787 503 1792 506Q1798 509 1798 517Q1810 518 1817 532Q1824 532 1828 535Q1833 539 1839 541Q1845 535 1854 535Q1861 535 1867 537Q1873 540 1880 541Q1889 543 1898 542Q1907 541 1917 541Q1922 541 1926 542Q1931 544 1936 544Q1939 544 1942 542Q1945 541 1949 541Q1963 541 1976 545Q1990 549 2003 541Q2011 543 2015 544Q2020 546 2028 541Q2033 543 2037 543Q2041 544 2046 546Q2053 546 2059 543Q2065 541 2072 541Q2077 541 2081 542Q2085 544 2090 544Q2101 544 2110 540Q2120 536 2132 539Q2140 533 2151 525Q2163 518 2173 528Q2176 526 2178 524Q2181 522 2182 517Q2189 515 2191 517Q2194 519 2199 519Q2204 514 2206 514Q2208 514 2215 514Q2224 509 2226 509Q2229 504 2233 503Q2238 502 2239 497Q2256 495 2265 487Q2275 479 2281 464Q2283 459 2293 459Q2292 443 2298 437Q2305 432 2318 426Q2317 418 2316 410Q2316 403 2316 395Q2318 379 2312 372Q2306 366 2308 354Q2305 353 2298 353Q2298 346 2301 342Q2285 336 2276 322Q2267 308 2254 300L2254 290Q2252 288 2249 288Q2246 289 2244 289Q2244 283 2241 278Q2238 273 2238 268Q2231 264 2224 263Q2225 257 2228 250Q2232 244 2239 242Q2241 240 2242 237Q2243 234 2245 232Q2247 230 2249 229Q2252 229 2254 227Q2259 223 2261 218Q2264 213 2269 210Q2278 203 2288 198Q2298 194 2306 183Q2310 171 2316 164Q2322 158 2329 150Q2336 143 2343 136Q2350 130 2353 128Q2353 122 2352 120Q2352 119 2358 115Q2359 109 2358 99Q2358 90 2357 80Q2357 70 2358 62Q2359 54 2363 51ZM2208 418Q2203 418 2197 419Q2192 421 2186 420Q2186 421 2182 424Q2178 427 2173 430Q2168 434 2163 437Q2159 440 2158 440Q2154 441 2150 440Q2146 440 2142 440Q2133 440 2127 445Q2121 450 2113 452Q2111 453 2108 452Q2105 452 2103 452Q2099 452 2096 454Q2093 457 2089 457Q2085 457 2082 456Q2079 455 2075 455Q2070 455 2064 458Q2059 461 2053 458Q2045 466 2033 465Q2022 465 2011 467Q2006 468 2000 470Q1994 472 1989 472Q1985 472 1982 469Q1979 467 1976 467Q1973 467 1970 468Q1967 470 1964 470Q1950 470 1938 464Q1927 459 1911 465Q1899 454 1882 444Q1883 417 1882 390Q1881 386 1880 382Q1879 378 1879 374Q1879 371 1882 368Q1885 366 1887 364Q1882 359 1881 354Q1881 349 1882 343Q1883 338 1885 333Q1887 328 1887 323Q1884 320 1883 311Q1883 302 1885 291Q1887 281 1890 271Q1894 262 1899 258Q1910 265 1920 263Q1931 261 1942 266Q1946 268 1949 269Q1953 271 1957 271Q1963 271 1968 269Q1974 268 1980 268Q1988 268 1996 268Q2004 269 2012 269Q2023 277 2035 277Q2048 277 2061 279Q2073 281 2083 285Q2093 290 2107 288Q2116 298 2119 303Q2122 308 2127 311Q2133 309 2136 310Q2139 311 2141 312Q2144 314 2148 315Q2152 316 2159 315Q2162 325 2171 327Q2180 330 2184 340Q2189 341 2192 341Q2195 341 2197 345Q2202 360 2207 365Q2213 370 2216 374Q2219 379 2218 387Q2217 395 2208 418ZM2935 463L2941 463Q2933 461 2932 454Q2932 448 2932 440Q2932 433 2933 426Q2934 420 2936 418Q2928 412 2930 407Q2933 403 2935 396Q2929 386 2931 371Q2933 357 2933 346Q2933 342 2931 338Q2930 335 2930 331Q2930 325 2932 319Q2935 313 2935 306Q2935 296 2932 288Q2930 280 2933 269Q2925 260 2926 248Q2928 237 2928 226Q2928 221 2926 216Q2924 212 2923 207Q2921 199 2923 192Q2925 185 2920 177Q2925 169 2925 160Q2925 151 2925 143Q2925 135 2928 125Q2932 116 2930 109Q2936 106 2936 98Q2936 88 2933 88Q2930 89 2925 83Q2928 78 2929 74Q2931 70 2933 65Q2933 59 2928 51Q2924 44 2929 39Q2919 32 2916 20Q2912 18 2907 14Q2903 10 2899 10Q2895 10 2891 11Q2888 13 2884 13Q2874 13 2865 9Q2857 5 2846 6Q2830 8 2825 12Q2820 16 2815 21Q2810 26 2805 31Q2800 36 2794 38Q2793 41 2787 47Q2782 54 2775 60Q2769 66 2762 71Q2755 76 2752 77Q2744 85 2743 89Q2742 93 2735 93Q2736 100 2733 104Q2731 109 2728 113Q2725 118 2721 122Q2718 126 2717 132Q2707 134 2704 142Q2701 150 2690 150Q2688 157 2683 159Q2678 162 2673 164Q2672 169 2670 169Q2668 170 2670 176Q2659 184 2649 193Q2639 203 2627 211Q2625 219 2620 225Q2616 232 2608 236Q2608 240 2604 247Q2600 255 2595 263Q2590 271 2585 278Q2580 285 2577 288Q2572 293 2572 295Q2573 298 2566 303Q2561 306 2562 308Q2563 311 2560 315Q2558 320 2553 323Q2549 327 2545 331Q2540 332 2538 330Q2536 329 2535 327Q2534 325 2533 323Q2532 321 2528 321Q2529 316 2530 312Q2532 308 2532 303Q2532 298 2529 292Q2526 286 2532 284Q2528 276 2527 266Q2527 257 2532 249Q2526 248 2525 244Q2524 240 2525 234Q2527 229 2529 223Q2531 218 2531 215Q2531 210 2529 205Q2528 201 2528 196Q2528 186 2533 176Q2538 166 2544 158Q2549 152 2550 145Q2552 138 2555 132Q2551 124 2554 116Q2557 108 2558 99Q2560 96 2562 93Q2565 91 2567 87Q2562 85 2562 80Q2563 75 2561 71Q2561 64 2563 59Q2565 54 2565 49Q2566 45 2563 41Q2561 37 2553 32Q2554 20 2551 16Q2548 12 2542 3Q2534 2 2528 1Q2523 1 2517 6Q2509 6 2509 -2Q2500 3 2490 7Q2480 12 2472 17Q2472 27 2471 36Q2471 45 2471 55L2471 73Q2471 78 2469 80Q2467 83 2464 86Q2466 95 2466 108Q2467 122 2459 129Q2458 144 2457 159Q2457 174 2454 189Q2463 200 2458 214Q2454 229 2454 242Q2454 245 2455 248Q2457 251 2457 254Q2457 270 2454 285Q2452 300 2452 316Q2452 323 2454 330Q2457 337 2457 345Q2457 354 2456 363Q2455 373 2453 382Q2452 385 2450 390Q2449 396 2449 398Q2449 403 2450 406Q2452 410 2454 415Q2447 441 2445 468Q2444 495 2444 521Q2448 525 2453 529Q2458 534 2463 538Q2469 543 2473 547Q2478 551 2479 551Q2482 552 2487 551Q2493 551 2498 549Q2504 548 2509 546Q2514 545 2515 543Q2517 540 2518 537Q2520 534 2522 532Q2525 529 2529 528Q2534 528 2539 520Q2542 515 2542 513Q2542 512 2543 511Q2544 510 2546 509Q2548 508 2554 505Q2562 494 2567 479Q2573 465 2579 450Q2585 436 2592 422Q2600 409 2613 399Q2613 385 2627 376Q2627 365 2631 363Q2635 361 2640 354Q2643 341 2651 332Q2660 324 2668 314Q2670 311 2671 308Q2672 305 2677 304Q2676 298 2679 296Q2683 295 2682 290Q2694 281 2694 275Q2695 269 2705 269Q2703 265 2706 262Q2709 259 2713 256Q2718 253 2723 249Q2728 245 2730 239L2742 239Q2744 228 2753 223Q2762 218 2765 207Q2770 205 2774 201Q2779 197 2784 195Q2785 187 2789 182Q2794 177 2801 173Q2800 165 2806 157Q2812 150 2818 147Q2823 148 2822 143Q2822 139 2830 137Q2846 153 2837 176Q2842 181 2841 191Q2841 201 2841 207Q2841 216 2843 225Q2845 235 2845 244Q2845 251 2842 259Q2843 261 2845 268Q2847 275 2848 283Q2850 291 2851 298Q2852 305 2852 307Q2852 312 2849 314Q2847 316 2846 320Q2849 323 2851 326Q2854 329 2856 332Q2857 341 2853 342Q2849 343 2849 347Q2849 355 2851 363Q2854 371 2854 379Q2854 383 2852 386Q2851 390 2851 394Q2851 401 2853 407Q2856 413 2856 419Q2856 424 2853 433Q2851 443 2846 445Q2848 460 2849 475Q2850 490 2839 503Q2838 514 2837 524Q2837 535 2845 544Q2852 546 2858 548Q2865 551 2868 559Q2879 559 2889 559Q2900 560 2911 557Q2918 545 2924 534Q2930 523 2925 509Q2927 504 2930 498Q2933 492 2933 486Q2933 482 2931 479Q2930 476 2930 473Q2930 468 2931 467Q2933 466 2935 463ZM3322 134Q3328 126 3320 122Q3320 109 3322 90Q3325 72 3318 61Q3319 59 3320 56Q3321 53 3321 51Q3321 42 3318 38Q3315 34 3311 31Q3308 28 3304 25Q3301 23 3301 18Q3288 19 3284 16Q3280 14 3272 5Q3261 5 3257 9Q3253 13 3245 14Q3240 28 3232 37Q3225 47 3225 61Q3225 67 3227 72Q3229 78 3231 84Q3233 94 3230 97Q3227 100 3227 107Q3227 110 3228 113Q3230 116 3229 119Q3231 129 3234 134Q3238 140 3238 148Q3238 151 3237 154Q3236 157 3236 161Q3236 165 3238 169Q3241 174 3241 179Q3241 185 3238 190Q3236 195 3236 201Q3236 205 3237 208Q3238 212 3238 217Q3238 227 3234 235Q3231 243 3230 253Q3230 256 3230 259Q3231 262 3229 265Q3225 274 3227 278Q3227 283 3221 289Q3215 296 3220 301Q3217 310 3217 313Q3217 317 3217 319Q3218 322 3219 324Q3221 326 3221 331Q3221 342 3217 352Q3213 363 3214 374Q3225 394 3217 405Q3209 416 3190 424Q3192 429 3190 429Q3189 430 3188 434Q3183 437 3182 438Q3181 440 3175 440Q3176 447 3172 451Q3168 455 3163 459Q3158 463 3153 466Q3148 470 3146 471Q3144 475 3141 478Q3139 481 3137 486Q3127 489 3121 497Q3115 505 3106 509Q3103 512 3102 515Q3101 518 3099 522Q3091 524 3088 527Q3085 530 3076 530Q3077 537 3075 542Q3069 552 3057 556Q3046 561 3038 571Q3033 577 3030 581Q3028 585 3021 587Q3021 596 3017 596Q3014 597 3012 604Q3006 607 3000 611Q2995 615 2993 621Q2977 628 2967 642Q2958 656 2942 662Q2937 673 2928 681Q2920 690 2915 701Q2921 712 2919 727Q2924 727 2926 729Q2929 732 2931 734Q2934 737 2938 739Q2943 741 2953 741Q2961 741 2965 745Q2973 739 2983 738Q2994 738 3002 730Q3003 725 3004 721Q3005 718 3006 713Q3014 710 3019 705Q3024 700 3029 694Q3034 689 3039 684Q3045 679 3053 677Q3060 666 3070 659Q3081 653 3094 649Q3097 642 3102 637Q3107 633 3109 625Q3114 623 3124 621Q3126 617 3127 613Q3128 610 3130 606Q3134 605 3136 603Q3138 601 3140 599Q3142 597 3144 596Q3147 595 3152 596Q3153 592 3155 590Q3158 588 3157 584Q3162 583 3165 582Q3169 581 3174 580Q3176 571 3183 564Q3191 557 3193 548Q3198 546 3200 544Q3203 542 3208 542Q3209 537 3211 535Q3214 533 3215 529Q3225 527 3229 518Q3234 510 3245 509Q3244 498 3248 496Q3252 495 3256 488Q3259 490 3261 491Q3264 492 3267 494Q3273 497 3277 502Q3282 508 3289 509Q3289 513 3290 514Q3292 515 3291 520Q3302 520 3303 523Q3304 526 3312 529Q3316 534 3319 537Q3323 540 3325 547Q3331 549 3332 551Q3333 554 3338 553L3344 562Q3346 564 3349 564Q3352 564 3354 566Q3364 576 3371 583Q3379 590 3381 595Q3381 598 3383 599Q3385 600 3388 602Q3391 604 3394 607Q3397 611 3400 619Q3405 621 3410 622Q3416 624 3421 629Q3431 640 3436 649Q3441 658 3448 661Q3455 664 3456 666Q3457 669 3461 675Q3466 681 3470 683Q3475 685 3480 693Q3483 697 3488 699Q3490 701 3489 704Q3489 708 3493 712Q3510 713 3516 731Q3524 732 3524 729Q3525 727 3530 723Q3538 729 3551 729Q3564 729 3574 726Q3574 720 3577 717Q3580 714 3583 711Q3586 708 3588 704Q3590 700 3589 693Q3593 689 3596 686Q3600 684 3602 679Q3600 672 3599 669Q3598 667 3600 659Q3597 654 3593 653Q3589 653 3584 651Q3582 644 3576 643Q3571 642 3569 634Q3566 633 3564 633Q3562 634 3559 634Q3553 628 3548 627Q3544 626 3538 623Q3533 621 3529 616Q3526 611 3527 600Q3523 598 3520 596Q3518 594 3515 594Q3510 592 3507 588Q3505 585 3498 584Q3495 579 3492 575Q3489 572 3487 567Q3473 565 3465 559Q3457 553 3456 539Q3445 538 3441 532Q3437 526 3427 524Q3425 521 3424 518Q3424 515 3421 512Q3420 508 3417 508Q3415 509 3412 507Q3405 500 3397 500Q3395 489 3387 483Q3380 477 3375 468Q3365 461 3362 457Q3360 454 3359 449Q3349 446 3344 438Q3340 430 3330 427Q3328 420 3321 417Q3315 415 3310 410Q3312 404 3310 400Q3308 396 3306 391Q3311 383 3308 375Q3305 367 3305 359Q3305 354 3303 352Q3301 351 3297 349Q3303 341 3304 330Q3306 320 3312 312Q3311 307 3310 294Q3310 281 3312 278L3315 268Q3314 264 3315 260Q3317 257 3318 254Q3320 246 3319 238Q3318 231 3318 223Q3318 219 3321 218Q3324 217 3327 217Q3326 212 3325 211Q3324 210 3321 206Q3323 204 3324 200Q3325 197 3327 193Q3326 186 3326 177Q3326 169 3323 163Q3325 160 3324 155Q3324 150 3329 150Q3330 140 3326 140Q3323 141 3322 134ZM3978 707L3995 707Q4000 700 4006 698Q4013 697 4019 692Q4022 690 4024 689Q4026 689 4028 689Q4030 689 4033 687Q4036 685 4041 680L4049 671Q4054 668 4058 666Q4062 664 4065 659Q4070 658 4072 656Q4074 654 4079 655Q4088 643 4098 633Q4108 623 4121 615Q4121 612 4124 606Q4128 600 4132 594Q4137 588 4142 583Q4147 579 4150 578Q4148 570 4148 569Q4149 569 4151 561Q4154 557 4157 553Q4160 550 4164 546Q4171 538 4171 533Q4172 528 4182 520Q4181 511 4181 509Q4182 507 4183 505Q4188 500 4190 493Q4193 486 4200 481Q4200 467 4205 453Q4210 439 4209 425Q4212 421 4213 418Q4214 415 4214 412Q4215 409 4217 406Q4219 404 4224 400Q4222 398 4219 394Q4217 391 4217 389Q4219 380 4218 375Q4218 370 4213 362Q4217 353 4216 347Q4216 341 4214 336Q4212 331 4211 325Q4211 320 4215 313Q4214 306 4212 304Q4210 302 4209 300Q4208 299 4208 295Q4208 291 4211 280Q4208 276 4206 272Q4205 269 4202 265Q4201 259 4198 251Q4196 243 4193 235Q4191 227 4189 220Q4187 214 4187 211Q4182 196 4174 183Q4168 179 4160 173Q4162 171 4164 168Q4167 166 4169 164Q4162 155 4156 144Q4151 134 4142 127Q4140 119 4141 117L4130 110Q4129 104 4126 100Q4124 97 4123 90Q4116 87 4113 82Q4111 78 4109 70Q4099 71 4099 70Q4099 69 4091 65Q4085 59 4077 51Q4069 43 4061 40Q4053 38 4046 32Q4040 27 4034 22Q4023 22 4016 18Q4009 15 4000 10Q3990 5 3979 3Q3969 1 3959 -4Q3956 -4 3952 -4Q3949 -4 3946 -2Q3941 -7 3938 -9Q3935 -10 3927 -11Q3913 -17 3911 -17Q3909 -16 3903 -12Q3894 -17 3887 -18Q3881 -18 3874 -18Q3868 -17 3861 -18Q3855 -18 3849 -21Q3841 -20 3838 -19Q3835 -17 3832 -17Q3830 -16 3826 -17Q3823 -18 3814 -23Q3809 -22 3804 -21Q3800 -19 3796 -16Q3783 -15 3770 -11Q3758 -6 3749 3Q3746 3 3743 4Q3740 6 3737 6Q3729 5 3727 8Q3726 11 3724 13Q3717 15 3715 16Q3714 17 3706 15Q3694 23 3694 25Q3694 27 3683 25Q3680 33 3676 37Q3672 42 3667 45Q3663 49 3658 52Q3654 56 3651 63Q3643 66 3635 69Q3628 72 3620 75Q3618 82 3620 90Q3615 99 3614 104Q3614 109 3603 114Q3605 120 3604 123Q3604 127 3602 130Q3601 133 3599 137Q3598 141 3598 147Q3591 160 3590 171Q3590 183 3588 188Q3585 193 3582 196Q3579 199 3580 206Q3578 210 3576 213Q3574 216 3571 219Q3570 237 3558 249Q3561 254 3562 258Q3563 263 3556 266Q3556 271 3556 275Q3557 279 3560 282Q3559 287 3558 290Q3558 293 3561 298Q3559 309 3556 313Q3556 320 3556 321Q3557 323 3560 329Q3560 334 3558 338Q3557 343 3561 348Q3558 363 3560 378Q3562 393 3564 408Q3569 401 3569 393Q3569 385 3567 379Q3560 385 3562 393Q3564 402 3567 411Q3570 420 3572 428Q3575 436 3576 437Q3574 444 3577 448Q3580 452 3582 457Q3578 465 3579 469Q3581 473 3586 478Q3588 495 3594 511Q3600 527 3603 544Q3612 554 3617 559Q3622 565 3625 579Q3633 587 3634 590Q3635 593 3640 596Q3644 598 3647 602Q3650 607 3655 608Q3657 611 3658 615Q3660 619 3662 623Q3671 623 3675 627Q3687 642 3693 644Q3699 646 3704 658Q3713 660 3716 664Q3720 669 3728 671Q3729 674 3733 680Q3746 680 3754 686Q3763 692 3775 693Q3783 698 3790 701Q3797 705 3806 705Q3811 708 3820 710Q3829 713 3839 714Q3849 716 3858 716Q3868 716 3873 714Q3878 718 3880 716Q3883 714 3888 714Q3892 714 3899 718Q3907 723 3915 723Q3921 723 3924 721Q3928 719 3930 717Q3933 715 3936 713Q3939 711 3945 711Q3955 711 3962 714Q3970 717 3978 707ZM4125 405L4128 412Q4125 414 4123 416Q4121 419 4119 422Q4119 435 4114 446Q4109 457 4107 470Q4103 472 4102 475Q4101 479 4100 483Q4093 491 4088 496Q4083 501 4083 509Q4080 507 4075 517Q4071 527 4069 530Q4067 534 4064 537Q4062 540 4060 544Q4055 546 4050 548Q4045 551 4043 556Q4033 558 4028 563Q4028 571 4023 575Q4018 579 4016 586Q4009 588 4005 592Q4004 596 4002 597Q4000 598 3997 601Q3988 602 3983 607Q3978 612 3969 608Q3963 612 3962 616Q3955 618 3952 617Q3949 617 3945 619Q3936 628 3930 629Q3925 631 3919 631Q3914 625 3903 627Q3899 624 3894 622Q3890 621 3885 624Q3879 620 3875 620Q3869 620 3864 622Q3859 624 3853 624Q3846 624 3839 622Q3832 621 3824 622Q3816 614 3806 616Q3801 610 3796 609Q3792 608 3788 606Q3785 605 3782 600Q3779 596 3776 585Q3769 588 3766 588Q3763 589 3761 587Q3760 586 3757 583Q3755 581 3749 579L3745 569Q3736 564 3730 556Q3725 548 3715 544Q3712 536 3708 532Q3704 528 3699 522Q3699 517 3694 510Q3693 504 3688 502Q3686 494 3685 485Q3685 477 3680 469Q3678 466 3676 462Q3675 458 3675 455Q3677 445 3675 442Q3674 439 3673 436Q3672 434 3672 430Q3673 427 3677 419L3666 419Q3666 415 3666 411Q3667 407 3662 403Q3662 399 3663 395Q3664 392 3664 387Q3661 384 3661 382Q3661 381 3659 378Q3661 372 3660 365Q3660 358 3660 351Q3652 341 3654 325Q3653 315 3650 311Q3648 299 3649 297Q3651 295 3653 288Q3655 283 3654 278Q3654 274 3655 269Q3664 258 3664 244Q3665 231 3670 225Q3673 221 3676 217Q3680 214 3678 209Q3683 203 3683 200Q3683 197 3683 195Q3683 193 3685 191Q3687 190 3695 187Q3693 185 3690 182Q3688 180 3687 177Q3691 175 3692 171Q3693 168 3697 166Q3700 155 3700 144Q3712 139 3714 129Q3717 120 3727 112Q3732 113 3738 107Q3741 102 3745 102Q3749 103 3752 103L3751 93Q3770 86 3780 81Q3791 77 3808 80Q3813 74 3816 72Q3819 71 3821 72Q3824 73 3828 74Q3832 75 3838 75Q3844 68 3848 69Q3852 71 3860 71Q3863 71 3866 70Q3869 69 3872 69Q3877 68 3881 73Q3886 79 3897 72Q3905 77 3914 77Q3924 78 3933 77Q3944 88 3960 91Q3977 95 3991 98Q3999 107 4015 109Q4021 115 4028 118Q4035 122 4043 126Q4045 131 4047 135Q4049 140 4051 145Q4068 160 4076 173Q4085 186 4091 201Q4096 203 4097 204Q4098 206 4100 209Q4103 222 4102 232Q4107 243 4110 247Q4114 251 4109 264Q4120 271 4120 280Q4121 290 4121 301Q4127 311 4128 316Q4129 321 4127 332Q4133 344 4131 361Q4130 379 4130 393Q4130 398 4127 399Q4125 401 4125 405ZM4820 357Q4815 363 4820 373Q4826 383 4826 391Q4826 396 4824 401Q4822 406 4822 411Q4822 423 4818 427Q4816 432 4818 433Q4821 435 4824 437Q4824 442 4824 447Q4825 453 4817 451Q4818 454 4818 456Q4819 458 4822 460Q4826 473 4828 481Q4831 490 4826 499Q4829 510 4831 521Q4833 533 4833 544Q4833 551 4830 557Q4828 564 4828 571Q4828 576 4830 579Q4832 583 4833 588Q4834 590 4831 593Q4828 597 4828 600Q4828 605 4830 607Q4833 609 4833 614Q4833 628 4826 636Q4828 643 4831 644Q4835 645 4835 650Q4835 655 4833 660Q4832 665 4832 670Q4832 684 4838 697Q4844 710 4856 717L4899 717Q4905 711 4911 706Q4917 702 4920 694Q4923 684 4921 672Q4919 661 4927 653Q4922 635 4924 619Q4927 603 4927 585Q4927 575 4925 565Q4924 556 4924 546Q4924 541 4925 535Q4927 530 4927 525Q4927 518 4918 513Q4918 504 4914 499Q4920 486 4918 481Q4917 477 4916 472Q4915 468 4916 463Q4917 458 4922 450Q4922 447 4920 443Q4919 440 4916 438Q4916 425 4916 413Q4916 401 4914 389Q4913 384 4910 379Q4907 375 4907 370Q4909 358 4911 354Q4914 351 4909 347Q4910 341 4910 338Q4910 335 4909 333Q4909 332 4908 330Q4908 328 4907 322Q4909 316 4909 312Q4903 297 4903 289Q4904 281 4908 275Q4902 269 4899 259Q4896 249 4901 241Q4898 236 4894 231Q4891 227 4896 220Q4896 215 4893 212Q4891 209 4886 206Q4890 198 4883 191Q4883 187 4887 186Q4891 186 4890 177Q4885 175 4885 168Q4886 162 4880 160Q4881 156 4880 152Q4879 149 4879 145Q4871 143 4869 137Q4868 131 4862 128Q4861 120 4859 118Q4858 116 4860 106Q4853 103 4848 98Q4844 93 4838 89Q4836 75 4826 68Q4817 62 4809 52Q4803 50 4801 53Q4800 56 4798 56Q4804 55 4803 52Q4802 49 4799 47Q4797 45 4794 42Q4792 39 4792 35Q4783 33 4775 29Q4768 25 4760 19Q4752 20 4748 18Q4744 17 4740 15Q4737 13 4732 11Q4728 10 4721 11Q4711 3 4697 1Q4684 0 4673 -7Q4663 -2 4654 -6Q4646 -9 4637 -9Q4628 -10 4622 -11Q4616 -11 4611 -11Q4606 -11 4601 -12Q4597 -13 4593 -18Q4582 -13 4568 -12Q4555 -10 4540 -9Q4526 -7 4513 -4Q4501 0 4494 8L4459 17Q4457 18 4455 21Q4453 24 4451 26Q4448 28 4445 28Q4442 29 4440 31Q4436 33 4431 37Q4426 42 4424 45Q4419 46 4414 48Q4410 51 4405 52Q4400 63 4392 72Q4385 81 4374 87Q4371 98 4361 104Q4361 111 4359 115Q4357 120 4354 123Q4352 127 4349 130Q4346 134 4343 139Q4340 147 4340 155Q4341 164 4339 172Q4338 175 4336 178Q4335 181 4335 185Q4333 195 4335 205Q4337 215 4330 223Q4328 228 4331 229Q4334 231 4335 233Q4335 237 4334 241Q4333 245 4332 249Q4331 265 4331 285Q4332 306 4324 320Q4324 330 4326 339Q4328 348 4328 357Q4328 363 4326 369Q4324 375 4324 381Q4324 386 4326 390Q4328 395 4328 399Q4328 402 4327 404Q4326 407 4326 409Q4326 433 4329 458Q4333 483 4322 505Q4324 536 4327 566Q4330 596 4330 626Q4330 631 4329 635Q4328 639 4328 643Q4328 648 4330 652Q4332 656 4332 661Q4334 671 4334 681Q4334 692 4336 700Q4339 709 4346 714Q4353 720 4368 720Q4379 720 4389 716Q4400 713 4407 705Q4408 698 4407 691Q4407 685 4407 678Q4407 669 4410 660Q4413 652 4413 643Q4413 639 4411 636Q4409 634 4409 628Q4409 621 4412 615Q4416 609 4416 603Q4416 598 4415 586Q4414 575 4412 572Q4411 564 4409 561Q4408 558 4408 554Q4408 549 4408 545Q4409 542 4409 537Q4409 532 4407 528Q4405 524 4405 520Q4405 517 4406 514Q4407 511 4407 508Q4407 503 4405 499Q4403 496 4403 491Q4402 483 4403 474Q4405 465 4405 457Q4405 452 4403 448Q4402 444 4402 440Q4402 434 4403 428Q4405 423 4405 418Q4405 413 4403 409Q4402 405 4402 400Q4402 392 4405 386Q4408 380 4408 372Q4407 363 4409 360Q4411 358 4413 356Q4413 350 4412 348Q4411 346 4411 344Q4411 342 4412 340Q4413 338 4418 332Q4416 327 4415 319Q4414 312 4421 309Q4414 293 4414 280Q4414 272 4417 264Q4420 256 4420 248Q4420 245 4419 242Q4418 240 4418 237Q4419 220 4418 220Q4418 220 4421 211Q4423 204 4422 196Q4422 189 4424 182Q4430 163 4444 150Q4458 138 4465 120Q4477 110 4491 103Q4506 97 4514 83Q4518 83 4521 82Q4524 81 4528 80Q4532 81 4534 82Q4536 84 4539 78Q4546 79 4549 79Q4553 79 4555 78Q4557 78 4559 77Q4562 76 4567 76Q4571 76 4574 77Q4577 79 4580 79Q4598 72 4610 75Q4623 78 4637 80Q4645 81 4647 74Q4656 74 4665 75Q4675 77 4683 83Q4693 80 4702 84Q4711 89 4721 89Q4725 94 4731 97Q4738 100 4743 102Q4749 105 4753 109Q4758 113 4760 121L4770 121Q4770 123 4774 129Q4778 135 4782 142Q4787 149 4791 154Q4795 160 4796 161Q4796 177 4801 182Q4807 188 4806 202Q4813 202 4813 204Q4813 206 4815 208Q4814 211 4813 219Q4813 228 4811 229Q4811 234 4812 236Q4814 238 4817 241Q4815 246 4815 252Q4816 259 4819 263Q4817 276 4818 281Q4820 286 4820 291Q4820 295 4816 296Q4813 298 4811 304Q4812 309 4816 314Q4820 319 4820 322Q4820 328 4818 333Q4817 339 4822 344Q4822 346 4818 349Q4815 352 4820 357ZM5691 493Q5684 485 5685 476Q5687 468 5687 460Q5687 452 5684 450Q5682 448 5679 443L5671 434Q5663 413 5656 402Q5649 392 5648 378Q5642 378 5642 374Q5643 370 5641 367Q5639 365 5634 364Q5630 363 5633 358Q5625 356 5612 345Q5599 334 5593 328Q5576 329 5567 317Q5558 305 5548 300Q5545 298 5541 299Q5538 300 5535 298Q5523 289 5518 287Q5513 285 5510 280Q5511 277 5513 275Q5516 274 5519 272Q5522 271 5524 269Q5526 267 5525 263Q5558 252 5585 233Q5583 221 5590 216Q5597 211 5601 209Q5600 201 5606 198Q5612 195 5616 190Q5620 181 5623 181Q5626 181 5628 179Q5629 173 5634 165Q5640 158 5641 157Q5643 152 5642 147Q5641 143 5641 138Q5641 128 5647 119Q5653 111 5648 101Q5650 97 5653 96Q5656 95 5658 90Q5660 83 5659 76Q5659 70 5661 64Q5663 57 5665 54Q5668 51 5668 42Q5668 29 5661 19Q5655 9 5648 -1Q5638 -3 5629 -8Q5621 -12 5618 -23Q5603 -25 5588 -23Q5585 -16 5581 -13Q5577 -9 5573 -5Q5570 -1 5567 3Q5565 8 5565 17Q5565 23 5561 28Q5558 34 5563 40Q5561 42 5560 45Q5560 48 5555 47Q5558 52 5557 59Q5557 67 5550 70Q5550 75 5552 77Q5555 79 5555 81Q5555 87 5550 91Q5545 95 5550 103Q5544 108 5541 116Q5539 124 5533 129Q5536 140 5533 149Q5531 158 5517 159Q5510 170 5505 172Q5500 175 5495 177Q5496 181 5494 182Q5493 184 5490 185Q5488 187 5486 189Q5485 191 5485 194Q5473 193 5470 198Q5468 203 5460 209Q5455 208 5451 209Q5448 211 5445 212Q5443 214 5440 215Q5437 216 5432 216Q5431 219 5428 220Q5426 222 5424 224Q5417 224 5407 226Q5398 229 5392 224Q5389 225 5387 227Q5385 230 5383 232Q5381 234 5378 235Q5376 236 5372 233Q5367 241 5362 244Q5358 247 5351 237Q5348 241 5342 241Q5337 242 5331 241Q5325 240 5319 239Q5313 239 5309 241Q5304 239 5300 238Q5296 237 5291 235Q5282 236 5267 236Q5253 237 5238 236Q5223 235 5209 232Q5196 230 5189 225Q5188 208 5190 195Q5192 183 5199 167Q5196 147 5198 144Q5200 141 5206 132Q5204 116 5204 103Q5205 91 5211 76Q5211 71 5214 70Q5217 69 5219 67Q5221 65 5221 62Q5222 59 5224 56Q5210 48 5206 35Q5202 23 5193 12Q5181 13 5172 7Q5164 1 5154 1Q5149 1 5145 4Q5141 7 5135 8Q5132 15 5128 21Q5125 27 5117 29Q5115 43 5109 45Q5104 48 5100 53Q5101 57 5099 59Q5097 61 5097 64Q5097 69 5098 70Q5100 72 5102 73Q5105 74 5106 75Q5108 76 5108 81Q5108 85 5106 88Q5105 91 5105 94Q5105 98 5107 99Q5110 101 5102 105Q5102 109 5103 112Q5105 115 5105 119Q5105 127 5103 134Q5102 141 5100 148Q5098 154 5093 155Q5089 156 5087 161Q5094 172 5092 190Q5091 209 5087 220Q5086 224 5082 223Q5078 223 5077 226Q5079 231 5081 237Q5083 244 5090 246Q5088 251 5088 256Q5089 261 5092 265Q5090 269 5088 273Q5087 277 5082 278Q5087 283 5084 287Q5081 291 5080 296Q5089 310 5087 323Q5085 336 5085 350Q5085 354 5087 357Q5090 360 5090 364Q5090 369 5088 373Q5087 377 5087 382Q5087 386 5089 389Q5091 392 5092 395Q5090 400 5091 402Q5092 404 5092 406Q5092 412 5087 423Q5082 434 5087 439Q5080 454 5081 463Q5082 473 5082 483Q5082 493 5079 501Q5077 509 5070 514Q5070 529 5067 543Q5065 558 5065 573Q5062 581 5064 582Q5067 584 5067 586Q5067 592 5063 597Q5059 603 5059 610Q5059 613 5060 616Q5062 619 5062 623Q5062 626 5059 630Q5056 634 5062 636Q5059 641 5058 645Q5057 650 5055 655Q5062 671 5072 682Q5082 694 5082 714Q5089 715 5095 716Q5102 718 5110 718Q5126 715 5135 716Q5145 718 5153 712Q5169 718 5185 719Q5202 721 5219 721Q5236 722 5252 722Q5269 723 5286 727Q5291 724 5295 722Q5299 720 5304 718Q5309 718 5312 720Q5316 723 5321 725Q5332 723 5342 724Q5353 725 5364 725Q5372 725 5380 722Q5388 720 5396 720Q5406 714 5407 717Q5408 720 5414 720Q5419 720 5428 718Q5437 716 5439 722Q5449 719 5459 718Q5469 718 5480 716Q5488 714 5490 710Q5492 707 5497 705Q5508 706 5512 701Q5517 697 5525 696Q5524 691 5528 691Q5532 691 5530 686Q5546 681 5555 673Q5562 672 5570 670Q5579 669 5585 666Q5589 664 5591 661Q5593 659 5595 657Q5598 656 5602 655Q5606 655 5608 653Q5610 652 5610 649Q5611 646 5613 644Q5617 640 5621 638Q5625 637 5623 629L5636 629Q5635 624 5637 621Q5640 619 5638 614Q5640 609 5644 606Q5648 603 5651 599Q5653 594 5653 589Q5653 584 5661 584L5661 571Q5666 563 5676 558Q5675 547 5678 542Q5682 537 5689 530Q5688 520 5688 511Q5688 502 5691 493ZM5589 511Q5580 525 5579 539Q5573 541 5570 545Q5567 549 5563 554Q5562 559 5559 563Q5557 568 5556 573Q5537 579 5527 594Q5518 594 5514 598Q5511 602 5504 607Q5499 607 5495 609Q5491 611 5486 611Q5470 618 5460 625Q5451 632 5440 634Q5430 636 5420 635Q5411 635 5401 637Q5396 638 5391 639Q5387 641 5382 641Q5370 639 5369 641Q5368 644 5366 644Q5358 639 5349 640Q5341 641 5333 641Q5328 641 5322 639Q5317 637 5312 637Q5307 637 5303 638Q5299 639 5294 639Q5289 639 5285 638Q5282 637 5278 637Q5275 637 5272 638Q5269 639 5265 639Q5257 639 5249 636Q5242 634 5234 634Q5227 637 5224 634Q5216 635 5210 634Q5204 634 5196 632Q5189 634 5183 635Q5177 636 5170 637Q5163 633 5162 629Q5161 626 5150 628Q5152 620 5153 611Q5155 602 5160 594Q5157 586 5153 583Q5150 580 5150 575Q5150 573 5154 567Q5159 562 5160 558Q5155 544 5157 530Q5159 516 5170 505Q5168 502 5168 498Q5169 494 5170 490Q5172 487 5173 482Q5174 478 5173 473Q5181 463 5185 456Q5189 449 5183 435Q5184 431 5188 430Q5192 429 5191 424Q5184 422 5184 411Q5184 406 5185 400Q5186 395 5186 390Q5186 380 5183 368Q5180 357 5183 348Q5181 344 5178 342Q5175 340 5175 335Q5178 333 5179 329Q5180 326 5183 324Q5191 326 5197 325Q5204 324 5211 324Q5207 322 5209 319Q5212 316 5214 314Q5232 312 5250 316Q5268 320 5286 320Q5295 320 5304 318Q5313 316 5322 316Q5327 316 5331 318Q5335 320 5340 320Q5354 318 5360 320Q5367 322 5373 318Q5384 323 5394 327Q5404 332 5417 329Q5427 332 5435 337Q5443 343 5455 339Q5458 342 5459 345Q5461 348 5466 350Q5469 348 5470 351Q5472 354 5476 352Q5481 357 5486 361Q5492 365 5496 371Q5503 372 5510 377Q5518 382 5524 387Q5531 392 5538 396Q5545 400 5553 401Q5556 410 5563 415Q5571 421 5576 429Q5575 434 5577 437Q5580 440 5579 445Q5585 449 5589 450Q5588 457 5591 459Q5595 461 5594 467Q5602 477 5601 483Q5600 489 5600 495Q5600 508 5589 511ZM6294 177L6300 186L6300 174Q6303 179 6303 185Q6304 191 6303 196Q6309 204 6310 212Q6311 221 6313 230Q6318 233 6317 234Q6317 235 6317 240Q6317 243 6318 244Q6320 246 6322 247Q6324 249 6325 251Q6327 253 6327 259Q6327 270 6325 279Q6323 289 6325 300Q6329 302 6331 304Q6333 307 6338 308Q6340 315 6343 322Q6346 330 6352 335Q6353 337 6353 342Q6353 347 6354 350Q6356 355 6359 360Q6362 366 6364 372Q6367 380 6369 389Q6372 398 6376 406Q6386 427 6395 449Q6404 471 6400 494Q6405 496 6412 506Q6420 516 6424 521Q6423 526 6425 532Q6440 542 6450 540Q6461 539 6469 542Q6476 537 6481 531Q6486 525 6493 521Q6495 510 6495 499Q6496 488 6498 477Q6495 473 6491 470Q6488 467 6484 464Q6484 460 6480 448Q6477 437 6472 424Q6467 412 6462 401Q6457 390 6454 387Q6455 376 6452 371Q6449 366 6442 358Q6440 338 6430 326Q6430 309 6421 296Q6412 284 6413 272Q6413 258 6409 248Q6405 239 6400 230Q6395 222 6392 212Q6389 202 6391 188Q6387 182 6383 181Q6383 164 6378 148Q6374 132 6371 115Q6370 110 6367 107Q6365 104 6362 100Q6367 92 6363 83Q6359 75 6359 66Q6359 63 6363 60Q6367 58 6367 53Q6367 48 6362 34Q6358 21 6356 16Q6351 15 6340 10Q6330 6 6330 -1Q6324 -4 6320 -4Q6317 -4 6313 -9Q6305 -4 6298 -3Q6292 -1 6284 1Q6281 11 6277 20Q6273 29 6271 39Q6265 51 6263 54Q6261 57 6247 63L6247 83Q6238 95 6233 107Q6228 119 6215 129Q6216 136 6214 141Q6212 147 6209 152Q6206 157 6203 162Q6201 167 6201 175L6191 180Q6187 187 6187 190Q6188 193 6180 197Q6180 203 6179 207Q6179 212 6174 216Q6174 224 6171 228Q6169 232 6166 237Q6163 243 6160 247Q6157 252 6156 253Q6154 257 6147 259Q6143 276 6135 286Q6127 296 6117 309Q6108 305 6104 303Q6101 301 6101 299Q6101 297 6102 294Q6103 292 6103 286Q6095 277 6095 274Q6096 271 6096 268Q6094 266 6091 264Q6088 263 6091 259Q6088 256 6086 254Q6085 253 6086 248Q6084 246 6081 244Q6078 243 6075 241Q6068 236 6069 228Q6071 220 6064 212L6064 200Q6064 197 6062 195Q6060 193 6058 191Q6054 188 6051 180Q6049 173 6047 168Q6041 155 6039 142Q6037 129 6035 115Q6033 109 6029 104Q6025 100 6025 93Q6025 90 6026 87Q6028 84 6028 81Q6028 75 6025 71Q6023 68 6020 64Q6018 61 6016 56Q6014 52 6015 44Q6010 40 6005 36Q6001 33 5996 31Q5997 23 5993 18Q5989 14 5988 6Q5979 6 5971 6Q5964 6 5956 3Q5947 13 5942 24Q5936 27 5935 32Q5934 37 5927 41Q5929 46 5929 48Q5929 51 5927 56Q5920 64 5912 70Q5905 76 5897 83Q5903 91 5905 96Q5899 107 5893 117Q5888 128 5876 136Q5874 154 5865 169Q5856 184 5856 202Q5851 213 5847 224Q5843 235 5839 246Q5838 250 5834 251Q5830 253 5827 255Q5827 265 5825 267Q5823 270 5817 278Q5817 300 5800 316Q5801 324 5797 328Q5794 332 5797 339Q5792 347 5789 357Q5786 367 5788 377Q5783 379 5782 382Q5782 386 5782 390Q5782 391 5779 397Q5777 403 5774 409Q5771 416 5768 421Q5766 427 5765 429Q5759 439 5749 445Q5749 457 5747 469Q5745 482 5737 492Q5738 511 5747 522Q5756 534 5773 542Q5786 537 5796 530Q5806 524 5819 522Q5821 515 5823 509Q5826 503 5825 496Q5830 488 5832 480Q5834 473 5842 467Q5841 458 5843 451Q5846 444 5849 437Q5852 431 5854 426Q5857 421 5857 417Q5856 408 5858 403Q5861 399 5864 391Q5866 386 5866 381Q5867 377 5869 372Q5871 364 5875 358Q5879 352 5883 345Q5889 336 5891 325Q5893 314 5898 304Q5903 292 5910 279Q5917 267 5917 254Q5917 252 5920 248Q5924 245 5926 243Q5930 238 5930 236Q5930 235 5932 230Q5939 216 5942 207Q5950 200 5952 190Q5955 181 5963 175Q5969 183 5975 200Q5981 218 5981 229Q5986 233 5988 238Q5990 244 5991 251Q6000 256 6001 265Q6003 274 6007 283Q6013 285 6016 296Q6019 307 6022 312Q6032 328 6037 340Q6043 352 6044 368Q6052 373 6054 375Q6056 384 6059 393Q6062 402 6069 408Q6069 414 6068 423Q6067 432 6066 442Q6066 452 6067 460Q6069 468 6073 472Q6078 476 6078 476Q6079 476 6082 483Q6087 483 6091 484Q6096 485 6100 483Q6107 488 6110 491Q6113 494 6122 496Q6124 485 6128 483Q6132 482 6141 480Q6147 473 6149 467Q6151 462 6160 457Q6157 448 6159 440Q6162 432 6165 422Q6169 412 6172 403Q6175 394 6176 392Q6181 381 6191 377Q6188 369 6189 365Q6191 362 6193 358Q6196 355 6198 351Q6200 347 6198 339Q6199 334 6202 331Q6206 329 6210 326Q6211 319 6214 309Q6217 300 6221 291Q6226 282 6232 275Q6239 268 6247 265Q6247 244 6266 236Q6268 227 6272 211Q6277 195 6283 187Q6285 185 6288 182Q6291 180 6294 177ZM7152 71Q7151 66 7143 63Q7135 61 7130 56Q7130 50 7127 47Q7124 45 7125 37Q7120 35 7115 28Q7110 21 7105 21Q7098 21 7093 24Q7089 28 7080 26Q7072 41 7058 47Q7051 60 7044 72Q7037 84 7031 97Q7016 110 7007 114Q6998 119 6990 117Q6983 116 6974 110Q6966 104 6951 95Q6941 95 6923 95Q6906 95 6898 99Q6895 100 6892 101Q6890 103 6887 103Q6883 103 6879 101Q6876 100 6872 100Q6868 100 6865 101Q6862 102 6858 103Q6854 103 6851 102Q6849 102 6846 103Q6840 100 6837 97Q6835 95 6831 95Q6817 100 6801 102Q6786 104 6772 112Q6764 114 6763 109Q6762 105 6757 105Q6746 106 6737 104Q6728 103 6717 103Q6712 103 6706 104Q6701 105 6696 105Q6690 105 6685 102Q6680 100 6675 100Q6671 100 6668 101Q6665 103 6660 103Q6655 103 6651 100Q6648 98 6644 98Q6639 98 6635 98Q6631 99 6627 99Q6618 99 6614 95Q6610 92 6608 86Q6607 81 6606 75Q6605 70 6600 66Q6602 51 6599 42Q6596 33 6587 21Q6574 20 6562 17Q6550 15 6537 15Q6529 15 6526 20Q6523 25 6518 30Q6511 36 6507 42Q6504 48 6499 56Q6500 60 6503 62Q6507 65 6510 67Q6508 73 6509 77Q6511 81 6514 85Q6517 89 6519 93Q6522 98 6522 103Q6522 109 6522 111Q6523 113 6524 114Q6525 115 6526 116Q6527 117 6529 121Q6531 125 6530 128Q6529 132 6531 136Q6535 145 6540 152Q6546 160 6551 168Q6553 173 6554 177Q6556 181 6558 185Q6561 193 6569 200L6569 213Q6572 217 6574 220Q6576 223 6581 225Q6580 237 6587 245Q6594 254 6596 265Q6610 273 6619 287Q6629 302 6626 319Q6634 322 6638 330Q6642 338 6650 341Q6650 349 6652 355Q6655 361 6655 369Q6664 374 6667 382Q6671 391 6675 399Q6676 401 6679 406Q6682 412 6685 418Q6688 424 6690 428Q6693 433 6693 435Q6711 465 6714 491Q6720 497 6722 499Q6725 502 6726 504Q6727 507 6727 510Q6727 514 6729 521Q6732 520 6734 523Q6737 527 6740 532Q6744 537 6749 541Q6755 546 6764 546Q6774 546 6783 544Q6792 542 6802 541Q6807 535 6812 530Q6818 525 6823 518L6823 506Q6831 496 6838 485Q6846 475 6858 470Q6857 459 6862 457Q6868 456 6875 451Q6874 442 6876 437Q6879 433 6882 427Q6886 422 6889 417Q6892 413 6893 411Q6898 402 6905 402Q6904 397 6908 395Q6912 394 6910 387Q6919 378 6932 373Q6932 366 6937 360Q6942 355 6947 352Q6948 347 6951 345Q6954 343 6957 341Q6962 338 6964 333Q6967 328 6972 326Q6973 317 6982 305Q6991 294 7001 282Q7011 271 7019 261Q7027 252 7026 247Q7034 242 7041 236Q7049 231 7059 227Q7059 219 7058 215Q7058 212 7059 209Q7060 207 7063 205Q7066 203 7073 198Q7072 193 7077 186Q7079 182 7080 177Q7081 173 7084 168Q7089 160 7097 155Q7106 151 7113 145Q7118 134 7121 123Q7124 112 7128 101Q7135 94 7143 91Q7144 86 7145 80Q7147 74 7152 71ZM6920 259Q6914 260 6911 263Q6908 267 6903 268Q6904 281 6898 282Q6892 283 6885 290Q6885 295 6881 296Q6877 298 6875 302Q6871 313 6870 314Q6869 316 6864 319Q6860 321 6860 324Q6860 327 6852 331Q6848 333 6844 334Q6840 335 6838 339Q6832 350 6823 362Q6815 375 6813 389Q6803 395 6798 403Q6794 411 6780 413Q6772 403 6769 391Q6766 380 6756 372L6756 359Q6751 353 6745 346Q6740 339 6741 331Q6733 329 6733 323Q6733 317 6729 312Q6727 309 6724 308Q6722 307 6722 302Q6717 292 6715 286Q6713 280 6710 275Q6699 270 6701 266Q6703 262 6700 255Q6696 248 6690 245Q6685 243 6687 232Q6676 222 6668 209Q6661 197 6663 182Q6673 183 6683 182Q6693 181 6703 181Q6714 181 6723 185Q6733 189 6744 189Q6757 189 6770 182Q6783 176 6795 182Q6800 180 6803 178Q6806 176 6811 174Q6844 168 6878 179Q6888 175 6893 174Q6896 176 6904 177Q6912 178 6920 179Q6929 180 6935 182Q6942 184 6941 187Q6948 191 6952 191Q6957 191 6957 202Q6957 208 6952 215Q6947 222 6940 229Q6933 237 6927 244Q6921 252 6920 259ZM7622 469Q7610 463 7605 449Q7581 434 7575 410Q7564 408 7559 401Q7554 394 7553 383Q7529 383 7519 362Q7502 353 7496 345Q7490 338 7488 327Q7481 321 7475 314Q7470 308 7468 298Q7459 295 7452 288Q7445 282 7438 275Q7439 270 7440 264Q7441 259 7441 254Q7441 248 7438 242Q7435 236 7435 228Q7435 215 7436 202Q7438 190 7438 177Q7438 174 7437 171Q7436 168 7436 165Q7436 159 7437 155Q7439 151 7433 146Q7435 140 7437 132Q7439 125 7445 121Q7440 113 7444 105Q7448 98 7448 90Q7448 85 7453 84Q7458 84 7462 83Q7466 80 7464 76Q7463 73 7458 73Q7459 68 7460 65Q7461 63 7455 62Q7457 57 7461 51Q7466 45 7466 43Q7466 38 7461 34Q7456 30 7454 25Q7450 16 7445 12Q7440 9 7438 7Q7433 -1 7432 -5Q7431 -9 7428 -11Q7422 -15 7409 -14Q7396 -13 7388 -16Q7384 -8 7376 -5Q7369 -1 7364 5Q7362 18 7359 30Q7357 42 7357 56Q7355 61 7355 66Q7355 72 7353 74Q7352 76 7349 77Q7347 78 7345 79Q7344 80 7344 83Q7344 89 7347 94Q7350 100 7350 106Q7352 116 7349 119Q7347 123 7345 126Q7345 134 7347 142Q7350 150 7350 158Q7350 162 7348 163Q7347 164 7345 167Q7351 179 7348 190Q7346 202 7342 213Q7334 219 7329 223Q7324 228 7314 229Q7311 234 7308 237Q7306 240 7305 246Q7287 251 7275 260L7275 270Q7266 276 7262 285Q7259 294 7251 301Q7244 308 7243 313Q7236 315 7231 319Q7226 323 7220 325Q7220 330 7218 333Q7217 337 7211 337L7211 348Q7198 350 7187 356Q7177 362 7166 367Q7165 369 7161 374Q7157 380 7152 385Q7147 390 7142 394Q7137 398 7136 398Q7132 407 7127 409Q7123 412 7118 417Q7115 420 7111 425Q7107 431 7101 437Q7096 443 7091 447Q7086 451 7082 451Q7082 456 7080 460Q7079 465 7074 467Q7074 476 7072 484Q7070 493 7070 502Q7070 513 7080 522Q7091 531 7102 531Q7107 531 7108 529Q7109 527 7117 531Q7128 531 7139 522Q7151 513 7161 510Q7163 504 7166 501Q7169 498 7168 491Q7176 482 7185 475Q7194 469 7205 463Q7207 462 7206 459Q7206 457 7211 453Q7219 447 7227 438Q7235 430 7245 428Q7246 420 7251 420Q7256 420 7255 410L7266 410Q7271 402 7277 397Q7283 392 7293 390Q7297 382 7303 376Q7310 371 7317 366Q7324 361 7330 355Q7336 349 7340 341L7358 341Q7370 333 7373 336Q7376 340 7378 346Q7393 346 7398 355Q7403 364 7414 369Q7413 378 7417 383Q7422 389 7420 397Q7434 399 7443 411Q7459 423 7472 435Q7485 447 7487 459Q7492 471 7495 472Q7498 474 7500 482Q7508 485 7512 490Q7517 496 7527 497Q7531 506 7532 514Q7537 513 7539 515Q7542 517 7546 517Q7555 522 7561 527Q7567 533 7578 536Q7583 538 7584 541Q7585 544 7588 546Q7594 546 7599 543Q7604 540 7611 543Q7622 535 7629 525Q7637 515 7637 502Q7637 495 7634 490Q7632 486 7629 483Q7627 480 7624 477Q7622 474 7622 469Z" fill="#292929" style=""></path></g></g></g></svg>